<svg xmlns="http://www.w3.org/2000/svg" viewBox="0 0 1200 820" role="img" aria-label="Distant beach ceremony with a small band">
  <defs>
    <linearGradient id="sky" x1="0" x2="0" y1="0" y2="1">
      <stop stop-color="#d8e1df"/>
      <stop offset=".5" stop-color="#e9dcc8"/>
      <stop offset="1" stop-color="#b58c65"/>
    </linearGradient>
    <linearGradient id="sea" x1="0" x2="1" y1="0" y2="0">
      <stop stop-color="#5d8589"/>
      <stop offset=".6" stop-color="#789c9a"/>
      <stop offset="1" stop-color="#d7c7a8"/>
    </linearGradient>
    <filter id="grain">
      <feTurbulence baseFrequency=".9" numOctaves="2" seed="12" type="fractalNoise"/>
      <feColorMatrix type="saturate" values="0"/>
      <feComponentTransfer>
        <feFuncA slope=".08" type="linear"/>
      </feComponentTransfer>
    </filter>
  </defs>
  <rect width="1200" height="820" fill="url(#sky)"/>
  <rect y="330" width="1200" height="170" fill="url(#sea)" opacity=".82"/>
  <path d="M0 482 C185 442 315 488 480 462 C700 428 840 455 1200 408 L1200 820 L0 820Z" fill="#d6b98e"/>
  <path d="M0 540 C240 502 430 545 650 510 C810 485 990 505 1200 462 L1200 820 L0 820Z" fill="#c59c72" opacity=".72"/>
  <path d="M0 356 C170 340 260 365 405 352 C620 332 760 356 1200 315" fill="none" stroke="#f4efe2" stroke-width="6" opacity=".54"/>
  <g opacity=".68" transform="translate(692 408) scale(.62)">
    <path d="M-195 70 C-150 8 -92 -18 -10 -18 C72 -18 130 8 175 70" fill="none" stroke="#f7efe2" stroke-width="12"/>
    <path d="M-210 72 H192" stroke="#f7efe2" stroke-width="8"/>
    <path d="M-154 72 L-130 142 M154 72 L132 142" stroke="#4b3429" stroke-width="8" stroke-linecap="round"/>
    <circle cx="-78" cy="43" r="12" fill="#2e2725"/>
    <rect x="-86" y="56" width="17" height="48" rx="7" fill="#2e2725"/>
    <path d="M-102 84 L-136 108 M-64 86 L-28 110" stroke="#2e2725" stroke-width="7" stroke-linecap="round"/>
    <circle cx="12" cy="42" r="12" fill="#2e2725"/>
    <rect x="4" y="55" width="17" height="50" rx="7" fill="#2e2725"/>
    <path d="M28 78 L88 50 M78 42 L112 73" stroke="#2e2725" stroke-width="7" stroke-linecap="round"/>
    <circle cx="93" cy="104" r="22" fill="none" stroke="#2e2725" stroke-width="7"/>
    <circle cx="145" cy="46" r="12" fill="#2e2725"/>
    <rect x="137" y="58" width="18" height="51" rx="7" fill="#2e2725"/>
    <path d="M134 82 L92 112 M158 82 L198 104" stroke="#2e2725" stroke-width="7" stroke-linecap="round"/>
    <path d="M-210 158 C-110 130 20 140 196 155" fill="none" stroke="#2e2725" stroke-width="5" opacity=".44"/>
  </g>
  <g opacity=".32">
    <path d="M96 124 C170 178 204 290 184 466" stroke="#2f2a26" stroke-width="18" stroke-linecap="round"/>
    <path d="M112 160 C35 126 6 82 -12 34 M123 164 C72 92 66 42 72 -12 M132 168 C188 106 238 80 312 67" stroke="#2f2a26" stroke-width="10" stroke-linecap="round"/>
  </g>
  <rect width="1200" height="820" filter="url(#grain)" opacity=".55"/>
  <rect width="1200" height="820" fill="#15100d" opacity=".12"/>
</svg>
